<?xml version="1.0" encoding="UTF-8" standalone="no"?>
<!DOCTYPE svg PUBLIC "-//W3C//DTD SVG 1.1//EN" "http://www.w3.org/Graphics/SVG/1.1/DTD/svg11.dtd">
<svg width="100%" height="100%" viewBox="0 0 512 512" version="1.1" xmlns="http://www.w3.org/2000/svg" xmlns:xlink="http://www.w3.org/1999/xlink" xml:space="preserve" xmlns:serif="http://www.serif.com/" style="fill-rule:evenodd;clip-rule:evenodd;stroke-linejoin:round;stroke-miterlimit:1.41421;">
    <g transform="matrix(1.92487,0,0,1.92487,-277.568,-316.576)">
        <text x="255.556px" y="400px" style="font-family:'FiraCode-Regular', 'Fira Code', monospace;font-size:273.501px;fill:rgb(120,226,160);">f</text>
    </g>
    <g transform="matrix(-526.455,-0.598356,-0.598356,526.455,297.224,453.187)">
        <path d="M0.411,-0.749C0.461,-0.749 0.509,-0.74 0.554,-0.721L0.527,-0.658C0.494,-0.673 0.456,-0.68 0.414,-0.68C0.341,-0.68 0.304,-0.651 0.304,-0.593L0.304,-0.486L0.482,-0.486L0.473,-0.419L0.304,-0.419L0.304,0L0.219,0L0.219,-0.419L0.094,-0.419L0.094,-0.486L0.219,-0.486L0.219,-0.591C0.219,-0.638 0.237,-0.677 0.274,-0.706C0.31,-0.735 0.356,-0.749 0.411,-0.749Z" style="fill-rule:nonzero;"/>
    </g>
</svg>
